<?xml version="1.0" encoding="iso-8859-1"?>
<!-- Generator: Adobe Illustrator 19.0.0, SVG Export Plug-In . SVG Version: 6.00 Build 0)  -->
<svg version="1.1" id="Layer_1" xmlns="http://www.w3.org/2000/svg" xmlns:xlink="http://www.w3.org/1999/xlink" x="0px" y="0px"
	 viewBox="0 0 490.001 490.001" style="enable-background:new 0 0 490.001 490.001;" xml:space="preserve">
<g>
	<path style="fill:#71D1D1;" d="M412.422,91.875h8.671c4.228,0,7.657,3.429,7.657,7.657s-3.429,7.657-7.657,7.657h-8.671V122.5
		h8.671c4.228,0,7.657,3.429,7.657,7.657s-3.429,7.657-7.657,7.657h-8.671v15.311h8.671c4.228,0,7.657,3.429,7.657,7.657
		s-3.429,7.657-7.657,7.657h-8.671v107.187h8.671c4.228,0,7.657,3.429,7.657,7.657c0,4.228-3.429,7.657-7.657,7.657h-8.671v76.561
		h39.295V68.907h-39.295V91.875z"/>
	<path style="fill:#A0E0E0;" d="M176.094,160.781h53.594c4.228,0,7.657,3.429,7.657,7.657v107.187h15.312v-61.249
		c0-4.228,3.429-7.657,7.656-7.657h53.594c4.228,0,7.657,3.429,7.657,7.657v61.249h15.311V245c0-4.228,3.429-7.657,7.656-7.657
		h53.594c4.228,0,7.657,3.429,7.657,7.657v30.625h6.641V168.438H367.5c-4.228,0-7.656-3.428-7.656-7.657
		c0-4.228,3.428-7.657,7.656-7.657h44.922v-15.311H367.5c-4.228,0-7.656-3.429-7.656-7.657s3.428-7.657,7.656-7.657h44.922v-15.311
		h-83.204c-4.228,0-7.656-3.429-7.656-7.657s3.428-7.657,7.656-7.657h83.204V68.907H172.655v92.697
		C173.69,161.082,174.855,160.781,176.094,160.781z"/>
	<path style="fill:#A0E0E0;" d="M172.655,290.938v16.58c2.072,1.37,3.44,3.719,3.44,6.388s-1.368,5.017-3.44,6.388v22.517h217.813
		c5.179,0,9.377,4.198,9.377,9.377v15.311h12.577v-76.561H172.655z M222.031,321.563h-22.968c-4.228,0-7.657-3.428-7.657-7.657
		c0-4.228,3.429-7.657,7.657-7.657h22.968c4.228,0,7.657,3.429,7.657,7.657S226.259,321.563,222.031,321.563z"/>
	<path style="fill:#D0F0F0;" d="M168.438,321.563H68.907c-4.228,0-7.657-3.428-7.657-7.657c0-4.228,3.429-7.657,7.657-7.657h99.531
		c1.559,0,3.007,0.469,4.217,1.269v-16.58H68.907c-4.228,0-7.657-3.429-7.657-7.657c0-4.228,3.429-7.657,7.657-7.657h15.311v-160.78
		c0-4.228,3.429-7.657,7.657-7.657h53.594c4.228,0,7.657,3.429,7.657,7.657v160.78h15.311V168.438c0-2.99,1.718-5.573,4.218-6.834
		V68.907H38.282v298.592h51.873v-15.311c0-5.179,4.198-9.377,9.377-9.377h73.123v-22.517
		C171.445,321.094,169.997,321.563,168.438,321.563z"/>
	<rect x="314.096" y="361.564" style="fill:#FBB03B;" width="66.995" height="27.184"/>
	<rect x="121.262" y="122.501" style="fill:#FBB03B;" width="16.551" height="153.124"/>
	<rect x="107.33" y="122.501" style="fill:#FCC062;" width="13.932" height="153.124"/>
	<rect x="99.532" y="122.501" style="fill:#FDD089;" width="7.798" height="153.124"/>
	<rect x="208.625" y="176.095" style="fill:#FBB03B;" width="13.406" height="99.53"/>
	<rect x="193.345" y="176.095" style="fill:#FCC062;" width="15.28" height="99.53"/>
	<rect x="183.751" y="176.095" style="fill:#FDD089;" width="9.595" height="99.53"/>
	<rect x="290.003" y="222.032" style="fill:#FBB03B;" width="16.247" height="53.593"/>
	<rect x="275.461" y="222.032" style="fill:#FCC062;" width="14.542" height="53.593"/>
	<rect x="267.969" y="222.032" style="fill:#FDD089;" width="7.492" height="53.593"/>
	<rect x="377.244" y="252.657" style="fill:#FBB03B;" width="13.224" height="22.968"/>
	<rect x="359.844" y="252.657" style="fill:#FCC062;" width="17.401" height="22.968"/>
	<rect x="352.188" y="252.657" style="fill:#FDD089;" width="7.656" height="22.968"/>
	<rect x="195.038" y="361.564" style="fill:#FCC062;" width="119.059" height="27.184"/>
	<rect x="108.909" y="361.564" style="fill:#FDD089;" width="86.129" height="27.184"/>
	<path d="M459.374,53.594H252.657V7.657C252.657,3.429,249.228,0,245,0s-7.657,3.429-7.657,7.657v45.937H30.626
		c-4.228,0-7.657,3.429-7.657,7.657v313.905c0,4.228,3.429,7.657,7.657,7.657h59.529v15.312c0,5.179,4.198,9.377,9.377,9.377h51.342
		l-57.268,69.994c-2.678,3.272-2.195,8.096,1.078,10.774c1.422,1.164,3.139,1.731,4.843,1.731c2.217,0,4.417-0.958,5.931-2.809
		l65.201-79.69h66.684v74.842c0,4.228,3.429,7.657,7.657,7.657s7.657-3.429,7.657-7.657v-74.842h66.685l65.201,79.69
		c1.514,1.85,3.713,2.809,5.931,2.809c1.705,0,3.421-0.567,4.843-1.731c3.272-2.677,3.755-7.501,1.078-10.774l-57.268-69.994h51.342
		c5.179,0,9.377-4.198,9.377-9.377v-15.312h59.529c4.228,0,7.657-3.429,7.657-7.657V61.25
		C467.031,57.022,463.602,53.594,459.374,53.594z M108.909,361.564h86.129h119.059h66.995v27.184h-66.995H195.038h-86.129V361.564z
		 M451.718,367.499h-39.295h-12.577v-15.311c0-5.179-4.198-9.377-9.377-9.377H172.655H99.532c-5.179,0-9.377,4.198-9.377,9.377
		v15.311H38.282V68.907h134.372h239.767h39.295v298.592H451.718z"/>
	<path d="M405.781,245c0-4.228-3.429-7.657-7.657-7.657H344.53c-4.228,0-7.656,3.429-7.656,7.657v30.625h-15.311v-61.249
		c0-4.228-3.429-7.657-7.657-7.657h-53.594c-4.228,0-7.656,3.429-7.656,7.657v61.249h-15.312V168.438
		c0-4.228-3.429-7.657-7.657-7.657h-53.594c-1.238,0-2.404,0.301-3.439,0.823c-2.499,1.261-4.218,3.844-4.218,6.834v107.187h-15.311
		v-160.78c0-4.228-3.429-7.657-7.657-7.657H91.875c-4.228,0-7.657,3.429-7.657,7.657v160.78H68.907
		c-4.228,0-7.657,3.429-7.657,7.657c0,4.228,3.429,7.657,7.657,7.657h103.748h239.767h8.671c4.228,0,7.657-3.429,7.657-7.657
		c0-4.228-3.429-7.657-7.657-7.657h-8.671h-6.641V245z M137.813,275.625h-16.551H107.33h-7.798V122.501h7.798h13.932h16.551V275.625
		z M222.031,275.625h-13.406h-15.28h-9.595v-99.53h9.595h15.28h13.406V275.625z M306.25,275.625h-16.247h-14.542h-7.492v-53.593
		h7.492h14.542h16.247V275.625z M390.468,275.625h-13.224h-17.401h-7.656v-22.968h7.656h17.401h13.224V275.625z"/>
	<path d="M321.562,99.532c0,4.228,3.428,7.657,7.656,7.657h83.204h8.671c4.228,0,7.657-3.429,7.657-7.657s-3.429-7.657-7.657-7.657
		h-8.671h-83.204C324.991,91.875,321.562,95.304,321.562,99.532z"/>
	<path d="M359.844,130.157c0,4.228,3.428,7.657,7.656,7.657h44.922h8.671c4.228,0,7.657-3.429,7.657-7.657s-3.429-7.657-7.657-7.657
		h-8.671H367.5C363.272,122.5,359.844,125.929,359.844,130.157z"/>
	<path d="M359.844,160.781c0,4.228,3.428,7.657,7.656,7.657h44.922h8.671c4.228,0,7.657-3.428,7.657-7.657
		c0-4.228-3.429-7.657-7.657-7.657h-8.671H367.5C363.272,153.125,359.844,156.553,359.844,160.781z"/>
	<path style="fill:#FFFFFF;" d="M68.907,306.25c-4.228,0-7.657,3.429-7.657,7.657c0,4.228,3.429,7.657,7.657,7.657h99.531
		c1.559,0,3.007-0.469,4.217-1.269c2.072-1.37,3.44-3.719,3.44-6.388s-1.368-5.017-3.44-6.388c-1.21-0.8-2.658-1.269-4.217-1.269
		H68.907z"/>
	<path style="fill:#FFFFFF;" d="M222.031,306.25h-22.968c-4.228,0-7.657,3.429-7.657,7.657c0,4.228,3.429,7.657,7.657,7.657h22.968
		c4.228,0,7.657-3.428,7.657-7.657S226.259,306.25,222.031,306.25z"/>
</g>
<g>
</g>
<g>
</g>
<g>
</g>
<g>
</g>
<g>
</g>
<g>
</g>
<g>
</g>
<g>
</g>
<g>
</g>
<g>
</g>
<g>
</g>
<g>
</g>
<g>
</g>
<g>
</g>
<g>
</g>
</svg>
